<svg width="18" height="18" viewBox="0 0 18 18" fill="none" xmlns="http://www.w3.org/2000/svg">
<rect width="3" height="3" rx="1.5" fill="#F7F3FF"/>
<rect y="10" width="3" height="3" rx="1.5" fill="#F7F3FF"/>
<rect y="5" width="3" height="3" rx="1.5" fill="#F7F3FF"/>
<rect y="15" width="3" height="3" rx="1.5" fill="#F7F3FF"/>
<rect x="5" width="3" height="3" rx="1.5" fill="#F7F3FF"/>
<rect x="5" y="10" width="3" height="3" rx="1.5" fill="#90899F"/>
<rect x="5" y="5" width="3" height="3" rx="1.5" fill="#90899F"/>
<rect x="5" y="15" width="3" height="3" rx="1.5" fill="#F7F3FF"/>
<rect x="10" width="3" height="3" rx="1.5" fill="#F7F3FF"/>
<rect x="15" width="3" height="3" rx="1.5" fill="#F7F3FF"/>
<rect x="10" y="10" width="3" height="3" rx="1.5" fill="#90899F"/>
<rect x="15" y="10" width="3" height="3" rx="1.5" fill="#F7F3FF"/>
<rect x="10" y="5" width="3" height="3" rx="1.5" fill="#90899F"/>
<rect x="15" y="5" width="3" height="3" rx="1.5" fill="#F7F3FF"/>
<rect x="10" y="15" width="3" height="3" rx="1.5" fill="#F7F3FF"/>
<rect x="15" y="15" width="3" height="3" rx="1.5" fill="#F7F3FF"/>
</svg>
