<svg width="18" height="18" viewBox="0 0 18 18" fill="none" xmlns="http://www.w3.org/2000/svg">
<path d="M8.18142 1.63636C8.18142 2.5401 7.44879 3.27273 6.54506 3.27273C5.64132 3.27273 4.90869 2.5401 4.90869 1.63636C4.90869 0.732625 5.64132 0 6.54506 0C7.44879 0 8.18142 0.732625 8.18142 1.63636Z" fill="#F7F3FF"/>
<path d="M8.18142 16.3636C8.18142 17.2674 7.44879 18 6.54506 18C5.64132 18 4.90869 17.2674 4.90869 16.3636C4.90869 15.4599 5.64132 14.7273 6.54506 14.7273C7.44879 14.7273 8.18142 15.4599 8.18142 16.3636Z" fill="#F7F3FF"/>
<path d="M17.9997 6.54545C17.9997 7.44919 17.2671 8.18182 16.3633 8.18182C15.4596 8.18182 14.727 7.44919 14.727 6.54545C14.727 5.64172 15.4596 4.90909 16.3633 4.90909C17.2671 4.90909 17.9997 5.64172 17.9997 6.54545Z" fill="#F7F3FF"/>
<path d="M13.0909 1.63636C13.0909 2.5401 12.3583 3.27273 11.4545 3.27273C10.5508 3.27273 9.81818 2.5401 9.81818 1.63636C9.81818 0.732625 10.5508 0 11.4545 0C12.3583 0 13.0909 0.732625 13.0909 1.63636Z" fill="#F7F3FF"/>
<path d="M17.9997 11.4545C17.9997 12.3583 17.2671 13.0909 16.3633 13.0909C15.4596 13.0909 14.727 12.3583 14.727 11.4545C14.727 10.5508 15.4596 9.81818 16.3633 9.81818C17.2671 9.81818 17.9997 10.5508 17.9997 11.4545Z" fill="#F7F3FF"/>
<path d="M13.091 16.3636C13.091 17.2674 12.3584 18 11.4546 18C10.5509 18 9.81826 17.2674 9.81826 16.3636C9.81826 15.4599 10.5509 14.7273 11.4546 14.7273C12.3584 14.7273 13.091 15.4599 13.091 16.3636Z" fill="#F7F3FF"/>
<path d="M3.27273 6.54545C3.27273 7.44919 2.5401 8.18182 1.63636 8.18182C0.732625 8.18182 0 7.44919 0 6.54545C0 5.64172 0.732625 4.90909 1.63636 4.90909C2.5401 4.90909 3.27273 5.64172 3.27273 6.54545Z" fill="#F7F3FF"/>
<path d="M3.27273 11.4545C3.27273 12.3583 2.5401 13.0909 1.63636 13.0909C0.732625 13.0909 0 12.3583 0 11.4545C0 10.5508 0.732625 9.81818 1.63636 9.81818C2.5401 9.81818 3.27273 10.5508 3.27273 11.4545Z" fill="#F7F3FF"/>
<path d="M18 16.3636C18 17.2674 17.2674 18 16.3636 18C15.4599 18 14.7273 17.2674 14.7273 16.3636C14.7273 15.4599 15.4599 14.7273 16.3636 14.7273C17.2674 14.7273 18 15.4599 18 16.3636Z" fill="#F7F3FF"/>
</svg>
