<svg width="23" height="23" viewBox="0 0 23 23" fill="none" xmlns="http://www.w3.org/2000/svg">
<rect y="15" width="3" height="3" rx="1.5" fill="#5AB4FF"/>
<rect y="20" width="3" height="3" rx="1.5" fill="#5AB4FF"/>
<rect x="5" y="10" width="3" height="3" rx="1.5" fill="#5AB4FF"/>
<rect x="5" y="15" width="3" height="3" rx="1.5" fill="#5AB4FF"/>
<rect x="5" y="20" width="3" height="3" rx="1.5" fill="#5AB4FF"/>
<rect x="15" y="10" width="3" height="3" rx="1.5" fill="#5AB4FF"/>
<rect x="20" y="10" width="3" height="3" rx="1.5" fill="#5AB4FF"/>
<rect x="20" y="5" width="3" height="3" rx="1.5" fill="#5AB4FF"/>
<rect x="10" y="15" width="3" height="3" rx="1.5" fill="#5AB4FF"/>
<rect x="10" y="20" width="3" height="3" rx="1.5" fill="#5AB4FF"/>
<rect x="15" y="15" width="3" height="3" rx="1.5" fill="#5AB4FF"/>
<rect x="20" y="15" width="3" height="3" rx="1.5" fill="#5AB4FF"/>
<rect x="15" y="20" width="3" height="3" rx="1.5" fill="#5AB4FF"/>
<rect x="20" y="20" width="3" height="3" rx="1.5" fill="#5AB4FF"/>
</svg>
