<svg width="168" height="100" viewBox="0 0 168 100" fill="none" xmlns="http://www.w3.org/2000/svg">
<mask id="mask0_428_1144" style="mask-type:alpha" maskUnits="userSpaceOnUse" x="0" y="0" width="168" height="100">
<rect width="168" height="100" rx="8" fill="#333435"/>
</mask>
<g mask="url(#mask0_428_1144)">
<path d="M14.6597 100.956L10.3267 106.325L19.2183 105.152L23.4547 99.5717L14.6597 100.956Z" stroke="#404040" stroke-miterlimit="10"/>
<path d="M-3.3491 99.8982L-7.55854 104.453L-0.75616 103.381L3.42462 98.6789L-3.3491 99.8982Z" stroke="#404040" stroke-miterlimit="10"/>
<path d="M0.623757 95.6015L-3.35814 99.9091L3.41833 98.6898L7.36593 94.2478L0.623757 95.6015Z" stroke="#404040" stroke-miterlimit="10"/>
<path d="M3.42428 98.679L-0.7565 103.381L6.62854 102.22L10.7643 97.356L3.42428 98.679Z" stroke="#404040" stroke-miterlimit="10"/>
<path d="M7.3662 94.2476L3.41859 98.6896L10.7559 97.3666L14.6501 92.7845L7.3662 94.2476Z" stroke="#404040" stroke-miterlimit="10"/>
<path d="M10.7447 97.3585L6.61173 102.22L14.6564 100.956L18.7171 95.9216L10.7447 97.3585Z" stroke="#404040" stroke-miterlimit="10"/>
<path d="M14.6332 92.7873L10.7391 97.3694L18.7114 95.9325L22.5303 91.2018L14.6332 92.7873Z" stroke="#404040" stroke-miterlimit="10"/>
<path d="M18.7171 95.9218L14.6564 100.957L23.4514 99.5719L27.4125 94.3555L18.7171 95.9218Z" stroke="#404040" stroke-miterlimit="10"/>
<path d="M22.5305 91.2018L18.7116 95.9325L27.407 94.3662L31.1177 89.4757L22.5305 91.2018Z" stroke="#404040" stroke-miterlimit="10"/>
<path d="M23.4296 99.5769L19.1931 105.157L28.9887 103.865L33.0876 98.0561L23.4296 99.5769Z" stroke="#404040" stroke-miterlimit="10"/>
<path d="M33.0878 98.0563L28.9889 103.865L39.8369 102.436L43.7434 96.3816L33.0878 98.0563Z" stroke="#404040" stroke-miterlimit="10"/>
<path d="M43.7189 96.3836L39.8096 102.438L51.8803 100.846L55.5317 94.5265L43.7189 96.3836Z" stroke="#404040" stroke-miterlimit="10"/>
<path d="M51.8857 100.83L47.9269 107.688L61.807 106.255L65.4044 99.0478L51.8857 100.83Z" stroke="#404040" stroke-miterlimit="10"/>
<path d="M55.5311 94.5263L51.8797 100.846L65.4012 99.0639L68.7016 92.4532L55.5311 94.5263Z" stroke="#404040" stroke-miterlimit="10"/>
<path d="M27.3884 94.3605L23.4273 99.5768L33.0853 98.0587L36.9057 92.6439L27.3884 94.3605Z" stroke="#404040" stroke-miterlimit="10"/>
<path d="M31.0929 89.4838L27.3822 94.3716L36.8995 92.6577L40.4692 87.6016L31.0929 89.4838Z" stroke="#404040" stroke-miterlimit="10"/>
<path d="M36.905 92.644L33.0846 98.0589L43.7403 96.3814L47.3708 90.7593L36.905 92.644Z" stroke="#404040" stroke-miterlimit="10"/>
<path d="M40.4687 87.6013L36.899 92.6575L47.3647 90.7728L50.7415 85.5368L40.4687 87.6013Z" stroke="#404040" stroke-miterlimit="10"/>
<path d="M47.3436 90.7619L43.7132 96.3839L55.5259 94.5268L58.9008 88.6804L47.3436 90.7619Z" stroke="#404040" stroke-miterlimit="10"/>
<path d="M50.7178 85.5419L47.3383 90.7752L58.8982 88.6938L62.0272 83.2691L50.7178 85.5419Z" stroke="#404040" stroke-miterlimit="10"/>
<path d="M58.9006 88.6803L55.5258 94.5266L68.699 92.4535L71.7361 86.3684L58.9006 88.6803Z" stroke="#404040" stroke-miterlimit="10"/>
<path d="M62.0273 83.2696L58.8982 88.6943L71.7337 86.3824L74.541 80.7573L62.0273 83.2696Z" stroke="#404040" stroke-miterlimit="10"/>
<path d="M4.40001 91.5137L0.62345 95.599L7.36563 94.2452L11.0995 90.0446L4.40001 91.5137Z" stroke="#404040" stroke-miterlimit="10"/>
<path d="M7.97446 87.6479L4.39213 91.5245L11.0944 90.0527L14.6311 86.0744L7.97446 87.6479Z" stroke="#404040" stroke-miterlimit="10"/>
<path d="M11.1009 90.0444L7.3671 94.245L14.6537 92.7819L18.3285 88.4575L11.1009 90.0444Z" stroke="#404040" stroke-miterlimit="10"/>
<path d="M14.6306 86.0744L11.0939 90.0527L18.3214 88.4658L21.7961 84.3801L14.6306 86.0744Z" stroke="#404040" stroke-miterlimit="10"/>
<path d="M18.3078 88.4603L14.633 92.7847L22.53 91.1993L26.1238 86.7454L18.3078 88.4603Z" stroke="#404040" stroke-miterlimit="10"/>
<path d="M21.777 84.3825L18.3023 88.4708L26.1183 86.7532L29.5064 82.5545L21.777 84.3825Z" stroke="#404040" stroke-miterlimit="10"/>
<path d="M26.1243 86.7452L22.5305 91.1991L31.1177 89.473L34.6031 84.8839L26.1243 86.7452Z" stroke="#404040" stroke-miterlimit="10"/>
<path d="M29.5069 82.5544L26.1189 86.7532L34.5977 84.8946L37.8745 80.5743L29.5069 82.5544Z" stroke="#404040" stroke-miterlimit="10"/>
<path d="M11.38 83.9637L7.97523 87.6478L14.6291 86.0742L17.9854 82.2993L11.38 83.9637Z" stroke="#404040" stroke-miterlimit="10"/>
<path d="M14.612 80.4667L11.3737 83.9719L17.9791 82.3075L21.1688 78.7197L14.612 80.4667Z" stroke="#404040" stroke-miterlimit="10"/>
<path d="M17.9845 82.2994L14.6282 86.0743L21.7937 84.3801L25.0824 80.5087L17.9845 82.2994Z" stroke="#404040" stroke-miterlimit="10"/>
<path d="M21.1687 78.7198L17.979 82.3076L25.0769 80.5169L28.1961 76.8491L21.1687 78.7198Z" stroke="#404040" stroke-miterlimit="10"/>
<path d="M25.0666 80.5113L21.7752 84.3826L29.5046 82.5546L32.7092 78.5866L25.0666 80.5113Z" stroke="#404040" stroke-miterlimit="10"/>
<path d="M28.1798 76.8517L25.0606 80.5223L32.7032 78.5949L35.7327 74.8386L28.1798 76.8517Z" stroke="#404040" stroke-miterlimit="10"/>
<path d="M32.7086 78.5864L29.504 82.5544L37.8716 80.5743L40.962 76.5038L32.7086 78.5864Z" stroke="#404040" stroke-miterlimit="10"/>
<path d="M35.7321 74.8384L32.7026 78.5948L40.9559 76.5149L43.8739 72.6698L35.7321 74.8384Z" stroke="#404040" stroke-miterlimit="10"/>
<path d="M34.5782 84.8889L31.0928 89.4807L40.4664 87.5985L43.8078 82.8629L34.5782 84.8889Z" stroke="#404040" stroke-miterlimit="10"/>
<path d="M37.8524 80.5795L34.5728 84.8998L43.8025 82.8737L46.9379 78.4316L37.8524 80.5795Z" stroke="#404040" stroke-miterlimit="10"/>
<path d="M43.8077 82.8632L40.4662 87.5989L50.7417 85.5343L53.8954 80.649L43.8077 82.8632Z" stroke="#404040" stroke-miterlimit="10"/>
<path d="M46.9373 78.4316L43.8019 82.8738L53.8897 80.6595L56.8398 76.0896L46.9373 78.4316Z" stroke="#404040" stroke-miterlimit="10"/>
<path d="M53.8709 80.6541L50.7172 85.5394L62.0266 83.2666L64.9377 78.2228L53.8709 80.6541Z" stroke="#404040" stroke-miterlimit="10"/>
<path d="M56.8158 76.0948L53.8657 80.6648L64.9352 78.2363L67.648 73.5325L56.8158 76.0948Z" stroke="#404040" stroke-miterlimit="10"/>
<path d="M64.9376 78.2228L62.0265 83.2666L74.5375 80.7543L77.1374 75.5458L64.9376 78.2228Z" stroke="#404040" stroke-miterlimit="10"/>
<path d="M67.6486 73.5324L64.9358 78.2361L77.1357 75.5565L79.5535 70.7156L67.6486 73.5324Z" stroke="#404040" stroke-miterlimit="10"/>
<path d="M40.9401 76.5119L37.8497 80.5824L46.9352 78.4317L49.8813 74.2558L40.9401 76.5119Z" stroke="#404040" stroke-miterlimit="10"/>
<path d="M43.8521 72.6776L40.9342 76.5199L49.8781 74.2666L52.6543 70.3324L43.8521 72.6776Z" stroke="#404040" stroke-miterlimit="10"/>
<path d="M49.8815 74.2559L46.9354 78.4318L56.8379 76.0898L59.604 71.8053L49.8815 74.2559Z" stroke="#404040" stroke-miterlimit="10"/>
<path d="M52.6546 70.3325L49.8784 74.2666L59.6009 71.816L62.1969 67.7897L52.6546 70.3325Z" stroke="#404040" stroke-miterlimit="10"/>
<path d="M59.5789 71.8103L56.8128 76.0948L67.645 73.5325L70.1817 69.1389L59.5789 71.8103Z" stroke="#404040" stroke-miterlimit="10"/>
<path d="M62.1751 67.7951L59.5763 71.8214L70.1819 69.1472L72.5566 65.0311L62.1751 67.7951Z" stroke="#404040" stroke-miterlimit="10"/>
<path d="M70.1816 69.1391L67.6449 73.5327L79.5471 70.7186L81.7996 66.2099L70.1816 69.1391Z" stroke="#404040" stroke-miterlimit="10"/>
<path d="M72.5567 65.031L70.182 69.1471L81.7972 66.2206L83.8985 62.0086L72.5567 65.031Z" stroke="#404040" stroke-miterlimit="10"/>
<path d="M17.7033 77.1215L14.6149 80.4613L21.1691 78.717L24.2006 75.3055L17.7033 77.1215Z" stroke="#404040" stroke-miterlimit="10"/>
<path d="M20.642 73.9442L17.6979 77.1295L24.1979 75.3135L27.085 72.0647L20.642 73.9442Z" stroke="#404040" stroke-miterlimit="10"/>
<path d="M24.2 75.3053L21.1685 78.7168L28.1959 76.8433L31.1595 73.3599L24.2 75.3053Z" stroke="#404040" stroke-miterlimit="10"/>
<path d="M27.085 72.0648L24.1979 75.3136L31.1547 73.3682L33.9684 70.0557L27.085 72.0648Z" stroke="#404040" stroke-miterlimit="10"/>
<path d="M31.1408 73.3652L28.1799 76.8486L35.7329 74.8354L38.6067 71.2772L31.1408 73.3652Z" stroke="#404040" stroke-miterlimit="10"/>
<path d="M33.9518 70.0609L31.1381 73.3734L38.6012 71.2854L41.3251 67.909L33.9518 70.0609Z" stroke="#404040" stroke-miterlimit="10"/>
<path d="M38.607 71.2774L35.7332 74.8356L43.8777 72.6671L46.6343 69.0338L38.607 71.2774Z" stroke="#404040" stroke-miterlimit="10"/>
<path d="M41.3244 67.9092L38.6006 71.2856L46.6306 69.042L49.2426 65.5988L41.3244 67.9092Z" stroke="#404040" stroke-miterlimit="10"/>
<path d="M23.453 70.9026L20.6393 73.9442L27.0823 72.0647L29.8362 68.9678L23.453 70.9026Z" stroke="#404040" stroke-miterlimit="10"/>
<path d="M26.1366 67.9992L23.4478 70.9079L29.831 68.9758L32.4599 66.0172L26.1366 67.9992Z" stroke="#404040" stroke-miterlimit="10"/>
<path d="M29.8356 68.968L27.0817 72.0649L33.9678 70.0559L36.6454 66.9034L29.8356 68.968Z" stroke="#404040" stroke-miterlimit="10"/>
<path d="M32.4597 66.0174L29.8307 68.976L36.6433 66.9115L39.1959 63.9055L32.4597 66.0174Z" stroke="#404040" stroke-miterlimit="10"/>
<path d="M36.6291 66.9087L33.9487 70.0611L41.322 67.9093L43.9124 64.7012L36.6291 66.9087Z" stroke="#404040" stroke-miterlimit="10"/>
<path d="M39.1792 63.9109L36.6266 66.9142L43.9098 64.7094L46.3724 61.656L39.1792 63.9109Z" stroke="#404040" stroke-miterlimit="10"/>
<path d="M43.9129 64.701L41.3225 67.9091L49.2407 65.6014L51.7191 62.3375L43.9129 64.701Z" stroke="#404040" stroke-miterlimit="10"/>
<path d="M46.3721 61.6557L43.9096 64.7091L51.7158 62.3428L54.0691 59.2445L46.3721 61.6557Z" stroke="#404040" stroke-miterlimit="10"/>
<path d="M46.6122 69.0389L43.8555 72.6722L52.6549 70.3297L55.2724 66.6184L46.6122 69.0389Z" stroke="#404040" stroke-miterlimit="10"/>
<path d="M49.2208 65.6065L46.6088 69.047L55.269 66.6265L57.7445 63.1189L49.2208 65.6065Z" stroke="#404040" stroke-miterlimit="10"/>
<path d="M55.2719 66.6186L52.6544 70.33L62.1967 67.7872L64.6421 64.0002L55.2719 66.6186Z" stroke="#404040" stroke-miterlimit="10"/>
<path d="M57.7446 63.1191L55.2691 66.6267L64.6393 64.0082L66.9453 60.436L57.7446 63.1191Z" stroke="#404040" stroke-miterlimit="10"/>
<path d="M64.621 64.0052L62.1756 67.7922L72.5572 65.0255L74.7893 61.1624L64.621 64.0052Z" stroke="#404040" stroke-miterlimit="10"/>
<path d="M66.9209 60.4412L64.6177 64.0135L74.7859 61.1706L76.884 57.536L66.9209 60.4412Z" stroke="#404040" stroke-miterlimit="10"/>
<path d="M74.7881 61.1624L72.556 65.0255L83.8977 62.0059L85.8645 58.0662L74.7881 61.1624Z" stroke="#404040" stroke-miterlimit="10"/>
<path d="M76.8834 57.536L74.7853 61.1706L85.8616 58.0743L87.7079 54.377L76.8834 57.536Z" stroke="#404040" stroke-miterlimit="10"/>
<path d="M51.6969 62.3427L49.2185 65.6067L57.7422 63.1218L60.084 59.8017L51.6969 62.3427Z" stroke="#404040" stroke-miterlimit="10"/>
<path d="M54.0466 59.25L51.6934 62.351L60.0804 59.81L62.2997 56.6638L54.0466 59.25Z" stroke="#404040" stroke-miterlimit="10"/>
<path d="M60.084 59.8018L57.7422 63.1219L66.943 60.4361L69.1179 57.065L60.084 59.8018Z" stroke="#404040" stroke-miterlimit="10"/>
<path d="M62.2998 56.664L60.0805 59.8102L69.1171 57.0706L71.175 53.8817L62.2998 56.664Z" stroke="#404040" stroke-miterlimit="10"/>
<path d="M69.0958 57.0702L66.9181 60.444L76.8812 57.5361L78.8564 54.1137L69.0958 57.0702Z" stroke="#404040" stroke-miterlimit="10"/>
<path d="M71.153 53.8869L69.0924 57.0786L78.8557 54.1194L80.7219 50.8874L71.153 53.8869Z" stroke="#404040" stroke-miterlimit="10"/>
<path d="M78.8569 54.1137L76.8817 57.5361L87.7035 54.3798L89.4378 50.9057L78.8569 54.1137Z" stroke="#404040" stroke-miterlimit="10"/>
<path d="M80.7222 50.8869L78.856 54.1189L89.4368 50.9136L91.0702 47.6436L80.7222 50.8869Z" stroke="#404040" stroke-miterlimit="10"/>
<path d="M95.5118 102.786L92.8109 111.677L114.587 110.136L116.287 100.643L95.5118 102.786Z" stroke="#404040" stroke-miterlimit="10"/>
<path d="M116.286 100.644L114.586 110.136L140.244 108.317L140.541 98.14L116.286 100.644Z" stroke="#404040" stroke-miterlimit="10"/>
<path d="M140.475 98.1501L140.172 108.327L170.837 106.155L169.155 95.191L140.475 98.1501Z" stroke="#404040" stroke-miterlimit="10"/>
<path d="M65.4127 99.0506L61.8154 106.257L77.5551 104.632L80.6598 97.0399L65.4127 99.0506Z" stroke="#404040" stroke-miterlimit="10"/>
<path d="M68.7105 92.4537L65.4101 99.0671L80.6599 97.0564L83.4916 90.129L68.7105 92.4537Z" stroke="#404040" stroke-miterlimit="10"/>
<path d="M80.6602 97.04L77.5555 104.632L95.556 102.773L97.99 94.7551L80.6602 97.04Z" stroke="#404040" stroke-miterlimit="10"/>
<path d="M83.4912 90.1289L80.6595 97.0563L97.9893 94.7715L100.196 87.501L83.4912 90.1289Z" stroke="#404040" stroke-miterlimit="10"/>
<path d="M97.9425 94.7572L95.5085 102.775L116.281 100.632L117.803 92.1399L97.9425 94.7572Z" stroke="#404040" stroke-miterlimit="10"/>
<path d="M100.153 87.5059L97.9431 94.7764L117.806 92.159L119.177 84.5133L100.153 87.5059Z" stroke="#404040" stroke-miterlimit="10"/>
<path d="M117.804 92.1399L116.281 100.632L140.534 98.1287L140.799 89.106L117.804 92.1399Z" stroke="#404040" stroke-miterlimit="10"/>
<path d="M119.177 84.5134L117.805 92.1592L140.807 89.1281L141.043 81.0738L119.177 84.5134Z" stroke="#404040" stroke-miterlimit="10"/>
<path d="M71.742 86.3684L68.705 92.4535L83.486 90.1288L86.0812 83.7846L71.742 86.3684Z" stroke="#404040" stroke-miterlimit="10"/>
<path d="M74.5462 80.7568L71.7389 86.3819L86.0808 83.7981L88.4649 77.9635L74.5462 80.7568Z" stroke="#404040" stroke-miterlimit="10"/>
<path d="M86.0811 83.7847L83.486 90.1289L100.191 87.501L102.202 80.8798L86.0811 83.7847Z" stroke="#404040" stroke-miterlimit="10"/>
<path d="M88.4649 77.9636L86.0808 83.7982L102.201 80.8934L104.042 74.837L88.4649 77.9636Z" stroke="#404040" stroke-miterlimit="10"/>
<path d="M102.16 80.8848L100.146 87.5059L119.168 84.5132L120.408 77.5968L102.16 80.8848Z" stroke="#404040" stroke-miterlimit="10"/>
<path d="M104.001 74.8421L102.16 80.8986L120.414 77.6106L121.541 71.3197L104.001 74.8421Z" stroke="#404040" stroke-miterlimit="10"/>
<path d="M120.408 77.597L119.168 84.5134L141.038 81.0738L141.249 73.8403L120.408 77.597Z" stroke="#404040" stroke-miterlimit="10"/>
<path d="M121.541 71.3199L120.415 77.6107L141.258 73.8569L141.449 67.3237L121.541 71.3199Z" stroke="#404040" stroke-miterlimit="10"/>
<path d="M140.738 89.1193L140.469 98.1392L169.142 95.18L167.668 85.5675L140.738 89.1193Z" stroke="#404040" stroke-miterlimit="10"/>
<path d="M140.986 81.0843L140.747 89.1385L167.682 85.5895L166.378 77.0898L140.986 81.0843Z" stroke="#404040" stroke-miterlimit="10"/>
<path d="M167.669 85.5675L169.143 95.1801L203.586 91.6234L199.652 81.3507L167.669 85.5675Z" stroke="#404040" stroke-miterlimit="10"/>
<path d="M166.378 77.0894L167.682 85.5892L199.674 81.3724L196.234 72.3937L166.378 77.0894Z" stroke="#404040" stroke-miterlimit="10"/>
<path d="M141.194 73.8532L140.977 81.0867L166.37 77.0922L165.21 69.5244L141.194 73.8532Z" stroke="#404040" stroke-miterlimit="10"/>
<path d="M141.396 67.337L141.2 73.87L165.221 69.5413L164.18 62.7601L141.396 67.337Z" stroke="#404040" stroke-miterlimit="10"/>
<path d="M165.211 69.5247L166.371 77.0925L196.224 72.394L193.197 64.4814L165.211 69.5247Z" stroke="#404040" stroke-miterlimit="10"/>
<path d="M164.18 62.7597L165.222 69.5408L193.213 64.5003L190.522 57.4723L164.18 62.7597Z" stroke="#404040" stroke-miterlimit="10"/>
<path d="M77.1431 75.5457L74.5432 80.7542L88.462 77.9609L90.6631 72.5786L77.1431 75.5457Z" stroke="#404040" stroke-miterlimit="10"/>
<path d="M79.5583 70.7159L77.1432 75.5568L90.6632 72.5896L92.6983 67.608L79.5583 70.7159Z" stroke="#404040" stroke-miterlimit="10"/>
<path d="M90.6637 72.5787L88.4626 77.961L104.037 74.8316L105.724 69.2717L90.6637 72.5787Z" stroke="#404040" stroke-miterlimit="10"/>
<path d="M92.6987 67.6079L90.6636 72.5896L105.726 69.2826L107.28 64.1591L92.6987 67.6079Z" stroke="#404040" stroke-miterlimit="10"/>
<path d="M105.685 69.2792L103.996 74.8391L121.536 71.3168L122.563 65.5722L105.685 69.2792Z" stroke="#404040" stroke-miterlimit="10"/>
<path d="M107.244 64.1671L105.687 69.2905L122.568 65.5862L123.511 60.3197L107.244 64.1671Z" stroke="#404040" stroke-miterlimit="10"/>
<path d="M122.563 65.5727L121.536 71.3173L141.443 67.3184L141.617 61.3899L122.563 65.5727Z" stroke="#404040" stroke-miterlimit="10"/>
<path d="M123.512 60.3197L122.568 65.5862L141.622 61.4034L141.782 55.9975L123.512 60.3197Z" stroke="#404040" stroke-miterlimit="10"/>
<path d="M81.8054 66.2099L79.5557 70.7187L92.6956 67.6108L94.5844 62.9862L81.8054 66.2099Z" stroke="#404040" stroke-miterlimit="10"/>
<path d="M83.9042 62.0086L81.803 66.2179L94.5847 62.9969L96.3439 58.6938L83.9042 62.0086Z" stroke="#404040" stroke-miterlimit="10"/>
<path d="M94.5842 62.9861L92.6954 67.6108L107.277 64.162L108.714 59.426L94.5842 62.9861Z" stroke="#404040" stroke-miterlimit="10"/>
<path d="M96.3438 58.6939L94.5846 62.997L108.714 59.4368L110.046 55.0445L96.3438 58.6939Z" stroke="#404040" stroke-miterlimit="10"/>
<path d="M108.675 59.4335L107.238 64.1695L123.505 60.3221L124.373 55.4762L108.675 59.4335Z" stroke="#404040" stroke-miterlimit="10"/>
<path d="M110.01 55.0523L108.678 59.4446L124.376 55.4873L125.179 51.0129L110.01 55.0523Z" stroke="#404040" stroke-miterlimit="10"/>
<path d="M124.374 55.4765L123.506 60.3223L141.776 56.0002L141.92 51.0511L124.374 55.4765Z" stroke="#404040" stroke-miterlimit="10"/>
<path d="M125.179 51.013L124.376 55.4873L141.925 51.0619L142.06 46.515L125.179 51.013Z" stroke="#404040" stroke-miterlimit="10"/>
<path d="M141.567 61.4027L141.388 67.3312L164.172 62.7571L163.233 56.6474L141.567 61.4027Z" stroke="#404040" stroke-miterlimit="10"/>
<path d="M141.732 56.0108L141.572 61.4167L163.243 56.6615L162.395 51.1248L141.732 56.0108Z" stroke="#404040" stroke-miterlimit="10"/>
<path d="M163.232 56.6476L164.171 62.7572L190.51 57.4698L188.105 51.1891L163.232 56.6476Z" stroke="#404040" stroke-miterlimit="10"/>
<path d="M162.394 51.1246L163.243 56.6613L188.118 51.2001L185.954 45.5514L162.394 51.1246Z" stroke="#404040" stroke-miterlimit="10"/>
<path d="M141.874 51.0641L141.727 56.0132L162.387 51.1272L161.616 46.0893L141.874 51.0641Z" stroke="#404040" stroke-miterlimit="10"/>
<path d="M142.016 46.5284L141.881 51.0753L161.623 46.1005L160.916 41.4956L142.016 46.5284Z" stroke="#404040" stroke-miterlimit="10"/>
<path d="M161.615 46.0892L162.387 51.1271L185.946 45.5539L183.993 40.4464L161.615 46.0892Z" stroke="#404040" stroke-miterlimit="10"/>
<path d="M160.916 41.4957L161.623 46.1005L184.004 40.4577L182.227 35.8173L160.916 41.4957Z" stroke="#404040" stroke-miterlimit="10"/>
<path d="M85.8705 58.0635L83.9037 62.0032L96.3406 58.6911L97.9816 54.6769L85.8705 58.0635Z" stroke="#404040" stroke-miterlimit="10"/>
<path d="M87.7138 54.377L85.8676 58.0716L97.9814 54.6878L99.5182 50.9325L87.7138 54.377Z" stroke="#404040" stroke-miterlimit="10"/>
<path d="M97.9819 54.6771L96.3408 58.6913L110.043 55.0419L111.282 50.9606L97.9819 54.6771Z" stroke="#404040" stroke-miterlimit="10"/>
<path d="M99.5185 50.9328L97.9817 54.688L111.284 50.9689L112.44 47.1659L99.5185 50.9328Z" stroke="#404040" stroke-miterlimit="10"/>
<path d="M111.248 50.9682L110.007 55.0495L125.173 51.0101L125.916 46.8662L111.248 50.9682Z" stroke="#404040" stroke-miterlimit="10"/>
<path d="M112.404 47.1736L111.251 50.9766L125.918 46.8774L126.608 43.0286L112.404 47.1736Z" stroke="#404040" stroke-miterlimit="10"/>
<path d="M125.916 46.8662L125.174 51.01L142.054 46.5121L142.177 42.3208L125.916 46.8662Z" stroke="#404040" stroke-miterlimit="10"/>
<path d="M126.608 43.0285L125.919 46.8773L142.182 42.3292L142.296 38.4526L126.608 43.0285Z" stroke="#404040" stroke-miterlimit="10"/>
<path d="M89.4427 50.9057L87.7113 54.3771L99.5129 50.9353L100.951 47.4171L89.4427 50.9057Z" stroke="#404040" stroke-miterlimit="10"/>
<path d="M91.0759 47.644L89.4425 50.9139L100.951 47.4253L102.302 44.1224L91.0759 47.644Z" stroke="#404040" stroke-miterlimit="10"/>
<path d="M100.951 47.417L99.5131 50.9353L112.435 47.1656L113.514 43.6109L100.951 47.417Z" stroke="#404040" stroke-miterlimit="10"/>
<path d="M102.303 44.1224L100.952 47.4253L113.514 43.6192L114.525 40.2908L102.303 44.1224Z" stroke="#404040" stroke-miterlimit="10"/>
<path d="M113.481 43.6215L112.401 47.1735L126.603 43.0312L127.246 39.4501L113.481 43.6215Z" stroke="#404040" stroke-miterlimit="10"/>
<path d="M114.495 40.3012L113.484 43.6268L127.249 39.4581L127.849 36.1146L114.495 40.3012Z" stroke="#404040" stroke-miterlimit="10"/>
<path d="M127.246 39.4501L126.603 43.0312L142.291 38.4553L142.396 34.8577L127.246 39.4501Z" stroke="#404040" stroke-miterlimit="10"/>
<path d="M127.848 36.1149L127.249 39.4584L142.402 34.8661L142.502 31.5202L127.848 36.1149Z" stroke="#404040" stroke-miterlimit="10"/>
<path d="M142.136 42.3342L142.01 46.5255L160.908 41.49L160.262 37.2662L142.136 42.3342Z" stroke="#404040" stroke-miterlimit="10"/>
<path d="M142.254 38.4658L142.14 42.3425L160.267 37.2744L159.671 33.385L142.254 38.4658Z" stroke="#404040" stroke-miterlimit="10"/>
<path d="M160.263 37.2664L160.908 41.4902L182.219 35.8145L180.599 31.5807L160.263 37.2664Z" stroke="#404040" stroke-miterlimit="10"/>
<path d="M159.671 33.3849L160.268 37.2744L180.607 31.5887L179.124 27.7093L159.671 33.3849Z" stroke="#404040" stroke-miterlimit="10"/>
<path d="M142.358 34.8709L142.25 38.4684L159.666 33.3876L159.116 29.7942L142.358 34.8709Z" stroke="#404040" stroke-miterlimit="10"/>
<path d="M142.463 31.5333L142.363 34.8792L159.121 29.7998L158.612 26.4696L142.463 31.5333Z" stroke="#404040" stroke-miterlimit="10"/>
<path d="M159.116 29.7944L159.666 33.3878L179.116 27.7122L177.751 24.146L159.116 29.7944Z" stroke="#404040" stroke-miterlimit="10"/>
<path d="M158.611 26.4696L159.12 29.7998L177.761 24.1541L176.499 20.8627L158.611 26.4696Z" stroke="#404040" stroke-miterlimit="10"/>
</g>
</svg>
