<svg width="168" height="100" viewBox="0 0 168 100" fill="none" xmlns="http://www.w3.org/2000/svg">
<mask id="mask0_428_1111" style="mask-type:alpha" maskUnits="userSpaceOnUse" x="0" y="0" width="168" height="100">
<rect width="168" height="100" rx="8" fill="#333435"/>
</mask>
<g mask="url(#mask0_428_1111)">
<path d="M20.498 115.693C33.4757 164.126 83.2592 192.869 131.693 179.891C180.126 166.913 208.868 117.13 195.891 68.6964C182.913 20.263 133.13 -8.47951 84.6962 4.49818C36.2628 17.4759 7.52028 67.2594 20.498 115.693Z" stroke="#404040" stroke-miterlimit="10"/>
<path d="M21.0167 114.404C33.5508 161.182 81.6328 188.942 128.411 176.408C175.189 163.874 202.949 115.792 190.415 69.0137C177.881 22.2357 129.799 -5.52439 83.0207 7.00974C36.2427 19.5439 8.48255 67.6258 21.0167 114.404Z" stroke="#404040" stroke-miterlimit="10"/>
<path d="M21.5254 113.113C33.6165 158.238 79.9993 185.017 125.124 172.925C170.249 160.834 197.028 114.452 184.937 69.3266C172.846 24.2018 126.463 -2.57732 81.3381 9.51385C36.2133 21.605 9.43418 67.9878 21.5254 113.113Z" stroke="#404040" stroke-miterlimit="10"/>
<path d="M22.0431 111.824C33.6907 155.293 78.372 181.09 121.841 169.442C165.311 157.795 191.108 113.113 179.46 69.644C167.812 26.1745 123.131 0.3778 79.6617 12.0254C36.1922 23.673 10.3955 68.3542 22.0431 111.824Z" stroke="#404040" stroke-miterlimit="10"/>
<path d="M22.5567 110.532C33.7613 152.348 76.7433 177.164 118.56 165.959C160.376 154.754 185.192 111.772 173.987 69.9559C162.782 28.1396 119.8 3.32389 77.984 14.5285C36.1677 25.7332 11.352 68.7152 22.5567 110.532Z" stroke="#404040" stroke-miterlimit="10"/>
<path d="M23.0705 109.244C33.8316 149.405 75.1121 173.238 115.273 162.477C155.434 151.716 179.267 110.435 168.506 70.2742C157.745 30.1133 116.465 6.27999 76.3036 17.0411C36.1427 27.8022 12.3094 69.0826 23.0705 109.244Z" stroke="#404040" stroke-miterlimit="10"/>
<path d="M23.5892 107.955C33.9068 146.46 73.4857 169.311 111.991 158.994C150.497 148.676 173.348 109.097 163.03 70.5916C152.713 32.086 113.134 9.23511 74.6282 19.5526C36.1226 29.8702 13.2717 69.4491 23.5892 107.955Z" stroke="#404040" stroke-miterlimit="10"/>
<path d="M24.1028 106.663C33.9774 143.515 71.8571 165.385 108.71 155.51C145.562 145.636 167.432 107.756 157.557 70.9035C147.683 34.0511 109.803 12.1812 72.9505 22.0558C36.0981 31.9304 14.2282 69.8101 24.1028 106.663Z" stroke="#404040" stroke-miterlimit="10"/>
<path d="M24.6205 105.373C34.0516 140.57 70.2297 161.458 105.427 152.027C140.624 142.596 161.511 106.418 152.08 71.2206C142.649 36.0236 106.471 15.1361 71.274 24.5671C36.077 33.9981 15.1895 70.1763 24.6205 105.373Z" stroke="#404040" stroke-miterlimit="10"/>
<path d="M25.1334 104.081C34.1209 137.623 68.5975 157.528 102.139 148.54C135.681 139.553 155.586 105.076 146.598 71.5347C137.611 37.9931 103.134 18.088 69.5927 27.0755C36.0511 36.0629 16.146 70.5396 25.1334 104.081Z" stroke="#404040" stroke-miterlimit="10"/>
<path d="M25.648 102.793C34.1925 134.682 66.9699 153.606 98.8584 145.062C130.747 136.517 149.671 103.74 141.126 71.8511C132.582 39.9626 99.8045 21.0385 67.916 29.583C36.0275 38.1275 17.1035 70.9049 25.648 102.793Z" stroke="#404040" stroke-miterlimit="10"/>
<path d="M26.1667 101.504C34.2676 131.737 65.3435 149.679 95.5766 141.578C125.81 133.477 143.751 102.401 135.65 72.1682C127.55 41.935 96.4736 23.9934 66.2405 32.0943C36.0074 40.1953 18.0657 71.2711 26.1667 101.504Z" stroke="#404040" stroke-miterlimit="10"/>
<path d="M26.6754 100.213C34.3333 128.793 63.71 145.754 92.29 138.096C120.87 130.438 137.831 101.061 130.173 72.4813C122.515 43.9013 93.138 26.9407 64.558 34.5987C35.978 42.2567 19.0174 71.6333 26.6754 100.213Z" stroke="#404040" stroke-miterlimit="10"/>
<path d="M27.1941 98.9244C34.4085 125.849 62.0837 141.827 89.0082 134.613C115.933 127.398 131.911 99.7232 124.697 72.7986C117.482 45.8741 89.8071 29.8958 62.8825 37.1102C35.9579 44.3247 19.9797 71.9998 27.1941 98.9244Z" stroke="#404040" stroke-miterlimit="10"/>
<path d="M27.7109 97.6313C34.4817 122.9 60.4553 137.896 85.7245 131.126C110.994 124.355 125.99 98.381 119.219 73.1118C112.448 47.8426 86.4742 32.8468 61.2051 39.6176C35.9359 46.3885 20.94 72.3621 27.7109 97.6313Z" stroke="#404040" stroke-miterlimit="10"/>
<path d="M28.2215 96.3443C34.5494 119.96 58.8238 133.975 82.4398 127.647C106.056 121.319 120.071 97.045 113.743 73.4289C107.415 49.8128 83.1405 35.798 59.5245 42.1259C35.9084 48.4538 21.8936 72.7282 28.2215 96.3443Z" stroke="#404040" stroke-miterlimit="10"/>
<path d="M28.7392 95.0551C34.6236 117.016 57.1964 130.048 79.1571 124.164C101.118 118.28 114.15 95.7067 108.266 73.746C102.382 51.7853 79.8087 38.7529 57.848 44.6372C35.8873 50.5216 22.8549 73.0944 28.7392 95.0551Z" stroke="#404040" stroke-miterlimit="10"/>
<path d="M29.257 93.7622C34.6978 114.068 55.5691 126.118 75.8744 120.677C96.1796 115.236 108.23 94.3647 102.789 74.0594C97.3481 53.7541 76.4768 41.7041 56.1715 47.1449C35.8663 52.5857 23.8162 73.457 29.257 93.7622Z" stroke="#404040" stroke-miterlimit="10"/>
<path d="M29.7705 92.474C34.7684 111.126 53.9405 122.195 72.5926 117.197C91.2448 112.2 102.314 93.0274 97.316 74.3753C92.3181 55.7231 73.146 44.6541 54.4939 49.6519C35.8417 54.6497 24.7727 73.8218 29.7705 92.474Z" stroke="#404040" stroke-miterlimit="10"/>
<path d="M30.2844 91.1821C34.8387 108.179 52.3092 118.266 69.306 113.711C86.3027 109.157 96.3894 91.6864 91.8351 74.6897C87.2808 57.6929 69.8103 47.6063 52.8135 52.1605C35.8168 56.7148 25.7301 74.1854 30.2844 91.1821Z" stroke="#404040" stroke-miterlimit="10"/>
<path d="M30.8021 89.8929C34.9128 105.234 50.6819 114.339 66.0232 110.228C81.3646 106.117 90.4688 90.3481 86.3581 75.0068C82.2474 59.6654 66.4784 50.5611 51.137 54.6719C35.7957 58.7826 26.6914 74.5516 30.8021 89.8929Z" stroke="#404040" stroke-miterlimit="10"/>
<path d="M31.3157 88.6008C34.9835 102.289 49.0533 110.412 62.7415 106.744C76.4297 103.077 84.5529 89.0069 80.8852 75.3187C77.2174 61.6304 63.1476 53.5072 49.4594 57.175C35.7712 60.8427 27.6479 74.9126 31.3157 88.6008Z" stroke="#404040" stroke-miterlimit="10"/>
<path d="M31.8295 87.3128C35.0537 99.3457 47.422 106.486 59.4548 103.262C71.4877 100.038 78.6285 87.6698 75.4043 75.637C72.1801 63.6042 59.8119 56.4633 47.779 59.6875C35.7462 62.9117 28.6054 75.28 31.8295 87.3128Z" stroke="#404040" stroke-miterlimit="10"/>
<path d="M32.3441 86.0248C35.1253 96.4045 45.7944 102.564 56.1741 99.7831C66.5538 97.0019 72.7136 86.3328 69.9324 75.9531C67.1511 65.5734 56.4821 59.4136 46.1023 62.1948C35.7226 64.9761 29.5628 75.6451 32.3441 86.0248Z" stroke="#404040" stroke-miterlimit="10"/>
<path d="M32.8608 84.7317C35.1985 93.4561 44.166 98.6335 52.8904 96.2958C61.6147 93.9581 66.7921 84.9906 64.4544 76.2663C62.1167 67.5419 53.1492 62.3645 44.4249 64.7022C35.7006 67.0399 30.5232 76.0074 32.8608 84.7317Z" stroke="#404040" stroke-miterlimit="10"/>
<path d="M33.3796 83.4428C35.2737 90.5117 42.5397 94.7067 49.6086 92.8126C56.6775 90.9185 60.8725 83.6525 58.9784 76.5836C57.0843 69.5147 49.8183 65.3197 42.7494 67.2138C35.6805 69.1079 31.4855 76.3739 33.3796 83.4428Z" stroke="#404040" stroke-miterlimit="10"/>
<path d="M33.8883 82.1519C35.3394 87.5677 40.9062 90.7816 46.322 89.3305C51.7378 87.8793 54.9518 82.3126 53.5006 76.8968C52.0494 71.481 46.4827 68.267 41.0669 69.7181C35.6511 71.1693 32.4371 76.7361 33.8883 82.1519Z" stroke="#404040" stroke-miterlimit="10"/>
</g>
</svg>
