<svg width="168" height="100" viewBox="0 0 168 100" fill="none" xmlns="http://www.w3.org/2000/svg">
<mask id="mask0_428_1428" style="mask-type:alpha" maskUnits="userSpaceOnUse" x="0" y="0" width="168" height="100">
<rect width="168" height="100" rx="8" fill="#333435"/>
</mask>
<g mask="url(#mask0_428_1428)">
<path d="M186.303 113.302L149.724 202.527C149.09 204.075 146.961 204.228 146.11 202.789C129.368 174.484 88.1669 175.212 72.4392 204.093L71.9157 205.058C66.7119 214.612 53.4363 215.742 46.6952 207.203L-16.1285 127.629C-20.6854 121.859 -20.4465 113.652 -15.5634 108.155C-15.5634 108.155 32.909 53.6024 33.1571 53.3218C49.1337 35.3398 63.2547 68.569 79.4842 68.4422C87.8943 68.3769 95.12 62.862 102.048 58.0904C117.601 47.3741 134.275 42.3248 151.095 34.5517C160.259 30.3175 171.458 16.9705 181.938 25.6032C187.201 29.9414 188.206 38.5944 190.014 44.8582C192.233 52.5457 193.561 60.4874 193.965 68.4782C194.74 83.7535 192.109 99.151 186.306 113.303L186.303 113.302Z" stroke="#404040" stroke-miterlimit="10"/>
<path d="M177.499 30.1736C182.443 34.2698 183.484 42.627 185.187 48.5241C186.617 53.4837 187.721 58.7302 188.355 63.8513C188.658 66.2308 188.872 68.621 188.998 71.0131C189.771 85.5605 187.284 100.233 181.755 113.715C181.678 113.899 147.21 198.107 147.103 198.281C146.276 199.639 144.483 199.905 143.667 198.563C139.371 191.474 133.416 186.221 126.696 182.946C121.076 180.208 114.919 178.883 108.779 178.934C94.9829 179.03 81.1133 186.245 73.4992 199.91C73.4964 199.909 73.0014 200.812 72.999 200.808C68.0997 209.801 55.5582 210.801 49.1457 202.68C48.9994 202.496 -7.35581 131.115 -7.35581 131.115C-7.36307 131.105 -10.3704 127.292 -10.3748 127.283C-13.8839 121.27 -14.4481 114.039 -9.82032 108.833C-9.82032 108.833 25.457 69.1288 34.3666 59.1044C35.6503 57.6587 36.4003 56.8177 36.437 56.7798C42.8534 49.8346 48.7372 51.005 54.6827 54.9454C56.2099 55.9511 57.7675 57.1703 59.294 58.4281C66.1411 64.0835 73.0582 71.2125 80.4231 71.1451C88.4042 71.0746 95.2574 65.8287 101.821 61.2844C116.438 51.1655 132.391 45.9616 148.223 38.644C149.888 37.8729 151.659 36.7328 153.445 35.5287C160.986 30.4471 169.487 23.5427 177.499 30.1764L177.499 30.1736Z" stroke="#404040" stroke-miterlimit="10"/>
<path d="M173.065 34.7476C177.691 38.5991 178.77 46.6636 180.364 52.1932C181.705 56.8425 182.797 61.9499 183.407 66.7497C183.694 69.0096 183.911 71.2798 184.039 73.552C184.81 87.3715 182.467 101.32 177.211 114.135C177.06 114.503 144.702 193.694 144.49 194.042C143.704 195.331 142.012 195.591 141.232 194.34C137.132 187.754 131.472 182.751 125.08 179.634C119.747 177.036 113.895 175.801 108.075 175.883C95.0464 176.019 81.8249 183.044 74.5702 195.73C74.5653 195.724 74.0955 196.569 74.0906 196.563C69.4985 204.994 57.688 205.867 51.6044 198.16C51.315 197.791 -1.76521 130.563 -1.76521 130.563C-1.78011 130.546 -4.60404 126.96 -4.61294 126.941C-7.92213 121.262 -8.44155 114.43 -4.07144 109.512C-4.07144 109.512 29.406 71.8348 37.759 62.4348C38.968 61.0732 39.68 60.2785 39.7204 60.2354C45.8806 53.7731 51.3679 54.8082 56.996 58.5382C58.4255 59.4846 59.9224 60.6667 61.3539 61.8454C67.8259 67.2109 74.3888 73.9211 81.3681 73.846C88.9207 73.7674 95.401 68.7933 101.598 64.4787C115.275 54.9568 130.511 49.5959 145.353 42.7394C146.915 42.017 148.609 40.8919 150.279 39.7577C157.414 34.9176 165.497 28.4477 173.065 34.7505L173.065 34.7476Z" stroke="#404040" stroke-miterlimit="10"/>
<path d="M168.629 39.3184C172.933 42.9274 174.05 50.6993 175.538 55.8589C176.791 60.1981 177.876 65.167 178.453 69.6471C178.728 71.7879 178.945 73.935 179.072 76.0924C179.841 89.1841 177.642 102.407 172.662 114.554C172.436 115.107 142.191 189.283 141.872 189.803C141.124 191.019 139.536 191.274 138.795 190.119C134.888 184.036 129.523 179.283 123.458 176.326C118.412 173.865 112.863 172.742 107.362 172.833C95.1025 173.042 82.531 179.842 75.635 191.556C75.6277 191.546 75.1865 192.33 75.1792 192.32C70.8944 200.189 59.8123 200.931 54.0602 193.643C53.6244 193.09 3.82238 130.013 3.82238 130.013C3.80022 129.987 1.1625 126.627 1.14635 126.599C-1.95979 121.252 -2.43761 114.82 1.67479 110.19C1.67479 110.19 33.3527 74.5375 41.1488 65.7647C42.2863 64.4849 42.9572 63.7389 43.0035 63.6938C48.8766 57.69 54.0051 58.6064 59.3095 62.131C60.6413 63.018 62.0783 64.1573 63.4144 65.2598C69.5278 70.3205 75.7233 76.6245 82.3137 76.5439C89.4374 76.4602 95.5424 71.7547 101.378 67.6678C114.119 58.7432 128.634 53.2277 142.488 46.8268C143.945 46.1528 145.56 45.0425 147.118 43.9786C153.847 39.3771 161.508 33.3469 168.635 39.3191L168.629 39.3184Z" stroke="#404040" stroke-miterlimit="10"/>
<path d="M164.195 43.8922C168.181 47.2565 169.333 54.7354 170.715 59.525C171.876 63.5536 172.96 68.3849 173.502 72.5421C173.765 74.5638 173.982 76.5905 174.108 78.6275C174.879 90.9889 172.82 103.49 168.114 114.967C167.811 115.704 139.68 184.863 139.252 185.557C138.542 186.704 137.059 186.95 136.352 185.89C132.64 180.309 127.572 175.806 121.832 173.006C117.073 170.686 111.831 169.656 106.648 169.775C95.1546 170.033 83.2322 176.634 76.6956 187.369C76.6856 187.359 76.273 188.081 76.2633 188.068C72.2829 195.375 61.9346 195.99 56.5114 189.117C55.9293 188.38 9.4083 129.455 9.4083 129.455C9.38169 129.42 6.92417 126.288 6.90076 126.25C3.99728 121.238 3.56147 115.205 7.41897 110.863C7.41897 110.863 37.2974 77.2342 44.5366 69.0886C45.5993 67.8929 46.2322 67.1932 46.2822 67.1428C51.8479 61.5775 56.6355 62.3921 61.6182 65.7174C62.8554 66.5425 64.2292 67.6415 65.4668 68.6701C71.2116 73.4361 77.0464 79.3261 83.2537 79.241C89.9485 79.152 95.6781 74.7152 101.152 70.8588C112.956 62.5344 126.752 56.8615 139.614 50.9157C140.967 50.2903 142.506 49.1951 143.947 48.201C150.27 43.841 157.513 38.2453 164.193 43.8862L164.195 43.8922Z" stroke="#404040" stroke-miterlimit="10"/>
<path d="M159.758 48.4631C163.426 51.5827 164.613 58.7685 165.891 63.1914C166.964 66.9097 168.042 71.5998 168.551 75.4374C168.805 77.3403 169.021 79.2466 169.147 81.1633C169.915 92.7969 168 104.57 163.567 115.383C163.19 116.302 137.174 180.45 136.636 181.315C135.968 182.39 134.585 182.631 133.917 181.667C130.401 176.589 125.628 172.336 120.215 169.696C115.741 167.513 110.806 166.583 105.94 166.723C95.2131 167.034 83.9436 173.43 77.7661 183.19C77.7536 183.177 77.3693 183.839 77.3572 183.823C73.684 190.568 64.0671 191.053 58.9724 184.599C58.2439 183.678 15.0012 128.904 15.0012 128.904C14.9673 128.859 12.6928 125.956 12.6649 125.909C9.96449 121.228 9.57031 115.596 13.1701 111.542C13.1701 111.542 41.2514 79.9411 47.9312 72.4196C48.9193 71.308 49.5142 70.6546 49.5678 70.599C54.8109 65.4586 59.2752 66.1882 63.9337 69.3108C65.0736 70.0737 66.3896 71.136 67.5294 72.0851C72.9027 76.556 78.3825 82.0329 84.2014 81.9396C90.4672 81.8454 95.8239 77.6804 100.932 74.048C111.799 66.3238 124.875 60.4907 136.748 55.006C137.997 54.4292 139.459 53.3491 140.784 52.4277C146.702 48.3064 153.523 43.1476 159.762 48.4579L159.758 48.4631Z" stroke="#404040" stroke-miterlimit="10"/>
<path d="M155.324 53.037C158.673 55.9146 159.898 62.805 161.067 66.8603C162.051 70.2684 163.125 74.8205 163.602 78.3356C163.844 80.1194 164.059 81.9054 164.185 83.7016C164.951 94.6074 163.18 105.656 159.02 115.799C158.569 116.902 134.668 176.037 134.017 177.075C133.366 178.113 132.106 178.313 131.477 177.443C128.152 172.865 123.676 168.865 118.59 166.382C114.403 164.339 109.773 163.506 105.224 163.67C95.2666 164.03 84.6435 170.227 78.8282 179.009C78.8133 178.993 78.4573 179.596 78.4428 179.577C75.074 185.76 66.1912 186.115 61.4251 180.078C60.5535 178.972 20.5857 128.351 20.5857 128.351C20.5442 128.299 18.4531 125.622 18.4208 125.566C15.9202 121.22 15.5681 115.986 18.913 112.22C18.913 112.22 45.1947 82.6434 51.3176 75.7491C52.2313 74.7189 52.7884 74.1117 52.8479 74.0541C57.7532 69.3251 61.9066 69.9827 66.2438 72.9031C67.286 73.6066 68.5416 74.6291 69.5832 75.5015C74.588 79.6777 79.7075 84.7378 85.1404 84.6395C90.9774 84.5401 95.9587 80.6438 100.706 77.2391C110.638 70.1154 122.991 64.1245 133.876 59.0954C135.021 58.567 136.403 57.5018 137.616 56.6506C143.128 52.7679 149.528 48.0461 155.326 53.0258L155.324 53.037Z" stroke="#404040" stroke-miterlimit="10"/>
<path d="M150.888 57.6079C153.917 60.2375 155.178 66.8408 156.241 70.5263C157.137 73.6241 158.207 78.0382 158.648 81.2332C158.878 82.8979 159.093 84.5635 159.218 86.2394C159.986 96.4177 158.356 106.741 154.471 116.218C153.943 117.505 132.163 171.627 131.399 172.835C130.811 173.77 129.631 173.996 129.036 173.223C125.906 169.144 121.726 165.398 116.968 163.075C113.068 161.172 108.742 160.436 104.514 160.624C95.3232 161.031 85.3522 167.029 79.8927 174.838C79.8754 174.818 79.5477 175.362 79.5307 175.34C76.4692 180.961 68.3173 181.189 63.8801 175.567C62.8622 174.277 26.1727 127.807 26.1727 127.807C26.1239 127.746 24.2158 125.298 24.1794 125.23C21.8819 121.215 21.5714 116.383 24.661 112.908C24.661 112.908 49.1433 85.3551 54.7088 79.0908C55.5506 78.1451 56.0669 77.5839 56.1297 77.5238C60.6897 73.1966 64.5428 73.7896 68.5527 76.5098C69.4976 77.151 70.6925 78.1364 71.6387 78.9325C76.2748 82.814 81.0366 87.4605 86.0807 87.3569C91.4887 87.2523 96.0947 83.6246 100.48 80.4503C109.478 73.93 121.109 67.7758 131.005 63.2049C132.046 62.7223 133.352 61.675 134.449 60.8937C139.558 57.25 145.533 52.9648 150.887 57.6163L150.888 57.6079Z" stroke="#404040" stroke-miterlimit="10"/>
<path d="M146.455 62.1822C149.168 64.5674 150.461 70.8773 151.418 74.1928C152.222 76.9829 153.292 81.2537 153.697 84.1287C153.918 85.6746 154.13 87.2194 154.257 88.7754C155.023 98.2258 153.536 107.824 149.926 116.632C149.323 118.104 129.66 167.214 128.784 168.591C128.235 169.454 127.159 169.674 126.603 168.995C123.663 165.415 119.781 161.922 115.35 159.756C111.738 157.991 107.719 157.355 103.806 157.564C95.3813 158.02 86.0595 163.819 80.9623 170.65C80.9426 170.627 80.6431 171.112 80.6237 171.087C77.8694 176.146 70.4461 176.243 66.3403 171.04C65.1761 169.566 31.7671 127.25 31.7671 127.25C31.7111 127.18 29.9892 124.958 29.9452 124.883C27.8503 121.203 27.5818 116.769 30.4137 113.582L58.105 82.4163C58.8725 81.552 59.3476 81.0394 59.4168 80.9745C63.6241 77.0422 67.1813 77.5797 70.8699 80.0977C71.7202 80.6771 72.8516 81.625 73.7028 82.3421C77.9703 85.9288 82.3714 90.1614 87.0299 90.05C92.009 89.9402 96.2421 86.5844 100.261 83.6342C108.324 77.72 119.234 71.4024 128.138 67.2867C129.075 66.8526 130.301 65.82 131.285 65.1089C135.989 61.7039 141.542 57.8556 146.455 62.1766L146.455 62.1822Z" stroke="#404040" stroke-miterlimit="10"/>
<path d="M142.016 66.7555C144.412 68.8932 145.74 74.9129 146.59 77.8612C147.305 80.341 148.372 84.4738 148.745 87.0263C148.953 88.4532 149.167 89.878 149.291 91.316C150.055 100.039 148.712 108.912 145.375 117.05C144.699 118.704 127.155 162.807 126.162 164.35C125.65 165.144 124.679 165.356 124.158 164.773C121.407 161.69 117.827 158.453 113.721 156.447C110.392 154.822 106.681 154.28 103.088 154.517C95.4334 155.019 86.7608 160.619 82.0198 166.474C81.9949 166.448 81.7264 166.874 81.7019 166.845C79.252 171.343 72.5624 171.312 68.7855 166.525C67.475 164.867 37.3442 126.702 37.3442 126.702C37.2809 126.622 35.742 124.629 35.6936 124.545C33.799 121.196 33.5749 117.164 36.1491 114.265L61.4868 85.7509C62.1796 84.9707 62.6167 84.5044 62.6923 84.4347C66.5392 80.8905 69.8113 81.377 73.1753 83.6951C73.9283 84.2123 74.9986 85.1259 75.752 85.7635C79.6477 89.0579 83.6942 92.8746 87.9643 92.755C92.5173 92.6404 96.3719 89.5556 100.03 86.8331C107.161 81.5283 117.345 75.044 125.261 71.3867C126.094 71.0011 127.243 69.9837 128.111 69.3453C132.412 66.1793 137.538 62.7672 142.013 66.758L142.016 66.7555Z" stroke="#404040" stroke-miterlimit="10"/>
<path d="M137.582 71.3268C139.663 73.2145 141.025 78.9496 141.769 81.528C142.396 83.6975 143.459 87.6895 143.796 89.922C143.992 91.2297 144.206 92.5341 144.332 93.8522C145.094 101.844 143.895 109.996 140.831 117.467C140.077 119.305 124.663 158.399 123.548 160.109C123.079 160.831 122.205 161.036 121.723 160.548C119.159 157.957 115.883 154.981 112.105 153.132C109.063 151.644 105.657 151.199 102.381 151.459C95.4937 152.006 87.4695 157.413 83.0908 162.289C83.063 162.262 82.8232 162.627 82.7962 162.595C80.6536 166.531 74.6954 166.37 71.2466 162.003C69.793 160.16 42.9372 126.148 42.9372 126.148C42.8663 126.061 41.5108 124.294 41.4579 124.201C39.7659 121.187 39.5842 117.55 41.9031 114.942C41.9031 114.942 60.9861 93.4672 64.8844 89.0794C65.5057 88.3809 65.9017 87.9634 65.9805 87.8912C69.4592 84.7284 72.4507 85.173 75.4935 87.2889C76.1516 87.7471 77.1587 88.6204 77.8171 89.1789C81.3442 92.1786 85.0304 95.5785 88.9146 95.4539C93.039 95.3313 96.515 92.5176 99.8149 90.0231C106.018 85.3313 115.474 78.674 122.4 75.475C123.129 75.138 124.2 74.1325 124.954 73.5671C128.856 70.6378 133.552 67.6614 137.588 71.3248L137.582 71.3268Z" stroke="#404040" stroke-miterlimit="10"/>
<path d="M133.146 75.9002C134.912 77.5379 136.306 82.9852 136.943 85.1964C137.481 87.0558 138.544 90.9101 138.842 92.8221C139.026 94.0107 139.24 95.1948 139.365 96.3924C140.128 103.657 139.07 111.083 136.28 117.885C135.451 119.907 122.165 153.998 120.928 155.868C120.496 156.521 119.724 156.718 119.283 156.327C116.9 154.228 113.932 151.513 110.48 149.821C107.726 148.473 104.627 148.122 101.668 148.41C95.5514 149 88.1728 154.213 84.1532 158.114C84.123 158.084 83.9115 158.39 83.8821 158.354C82.0443 161.725 76.8194 161.44 73.6996 157.489C72.0996 155.461 48.522 125.601 48.522 125.601C48.4438 125.504 47.2714 123.966 47.2144 123.861C45.7227 121.178 45.5854 117.943 47.6466 115.622C47.6466 115.622 64.9301 96.1722 68.2714 92.4117C68.818 91.7973 69.1765 91.4232 69.2584 91.3487C72.3695 88.5644 75.08 88.9699 77.8018 90.8808C78.3625 91.2767 79.3061 92.1126 79.872 92.5952C83.0305 95.3001 86.3561 98.2861 89.857 98.157C93.5525 98.0292 96.6529 95.4869 99.5893 93.2168C104.865 89.1408 113.591 82.3106 119.529 79.567C120.154 79.2786 121.145 78.285 121.787 77.7927C125.286 75.0996 129.554 72.5621 133.149 75.8978L133.146 75.9002Z" stroke="#404040" stroke-miterlimit="10"/>
<path d="M128.713 80.4713C130.165 81.8562 131.59 87.0184 132.121 88.8626C132.567 90.4113 133.635 94.126 133.895 95.7176C134.07 96.7874 134.28 97.8507 134.405 98.928C135.166 105.465 134.252 112.166 131.738 118.299C130.833 120.502 119.682 149.593 118.314 151.623C117.921 152.204 117.25 152.392 116.847 152.101C114.639 150.491 111.987 148.039 108.863 146.508C106.393 145.297 103.601 145.043 100.96 145.358C95.6101 145.989 88.8828 151.009 85.2222 153.934C85.1896 153.901 85.0064 154.148 84.9745 154.109C83.444 156.918 78.9476 156.502 76.1592 152.969C74.4129 150.759 54.1163 125.049 54.1163 125.049C54.0337 124.943 53.0414 123.634 52.9772 123.519C51.6881 121.171 51.5929 118.334 53.3964 116.301C53.3964 116.301 68.8803 98.8753 71.6647 95.742C72.1369 95.209 72.4571 94.884 72.5455 94.8046C75.2812 92.3921 77.7187 92.7625 80.1188 94.474C80.5854 94.8053 81.4651 95.6065 81.9328 96.0124C84.7226 98.4226 87.6904 100.995 90.8029 100.858C94.0695 100.725 96.7909 98.4563 99.3695 96.4115C103.722 92.9605 111.714 85.948 116.661 83.6624C117.181 83.4225 118.094 82.4408 118.622 82.0216C121.722 79.5623 125.557 77.4602 128.716 80.4717L128.713 80.4713Z" stroke="#404040" stroke-miterlimit="10"/>
<path d="M124.276 85.0453C125.42 86.1726 126.869 91.0546 127.295 92.5288C127.652 93.7673 128.722 97.342 128.941 98.6127C129.104 99.5634 129.313 100.506 129.441 101.464C130.2 107.272 129.429 113.249 127.188 118.716C126.209 121.103 117.199 145.198 115.695 147.384C115.343 147.896 114.766 148.074 114.409 147.878C112.362 146.757 110.037 144.569 107.241 143.195C105.058 142.124 102.574 141.962 100.25 142.303C95.6712 142.973 89.5888 147.805 86.2877 149.752C86.2526 149.715 86.0949 149.903 86.0634 149.861C84.8401 152.109 81.0746 151.565 78.6152 148.447C76.7253 146.053 59.7042 124.495 59.7042 124.495C59.6143 124.379 58.805 123.298 58.7363 123.174C57.6475 121.158 57.5939 118.722 59.1421 116.98L75.054 99.0724C75.4515 98.6235 75.7309 98.3444 75.8253 98.263C78.186 96.2195 80.3502 96.5576 82.4286 98.0697C82.7979 98.3387 83.6164 99.1056 83.9896 99.4297C86.4108 101.545 89.0179 103.704 91.7449 103.559C94.5825 103.42 96.925 101.426 99.1461 99.6034C102.583 96.7842 109.834 89.5799 113.792 87.7526C114.208 87.5613 115.039 86.5883 115.456 86.2481C118.16 84.0231 121.557 82.3556 124.282 85.0433L124.276 85.0453Z" stroke="#404040" stroke-miterlimit="10"/>
<path d="M119.843 89.616C120.68 90.48 122.155 95.0907 122.474 96.195C122.743 97.126 123.818 100.558 123.992 101.511C124.145 102.345 124.355 103.165 124.479 104.002C125.237 109.083 124.61 114.332 122.642 119.131C121.589 121.703 114.733 140.81 113.08 143.141C112.766 143.585 112.284 143.755 111.972 143.655C110.068 143.032 108.09 141.101 105.619 139.884C103.723 138.953 101.545 138.882 99.5368 139.253C95.7271 139.955 90.2948 144.602 87.3527 145.574C87.3152 145.534 87.1857 145.662 87.1518 145.618C86.2329 147.303 83.2016 146.63 81.0707 143.93C79.0349 141.35 65.2916 123.945 65.2916 123.945C65.1941 123.822 64.5654 122.967 64.4951 122.834C63.6093 121.15 63.5973 119.115 64.8906 117.662L78.4456 102.408C78.7716 102.041 79.0103 101.808 79.1107 101.724C81.0908 100.049 82.9869 100.358 84.7439 101.668C85.0191 101.872 85.7737 102.605 86.0515 102.852C88.1037 104.676 90.3514 106.412 92.6916 106.268C95.0317 106.123 97.0607 104.406 98.9243 102.806C101.454 100.637 107.956 93.2254 110.925 91.8536C111.237 91.708 111.987 90.7466 112.293 90.4826C114.604 88.4866 117.556 87.2585 119.851 89.6228L119.843 89.616Z" stroke="#404040" stroke-miterlimit="10"/>
<path d="M115.406 94.1897C115.945 94.7831 117.435 99.1266 117.648 99.8637C117.828 100.485 118.914 103.775 119.038 104.408C119.179 105.124 119.388 105.823 119.512 106.539C120.27 110.893 119.785 115.417 118.09 119.55C116.959 122.306 112.273 136.438 110.456 138.901C110.181 139.272 109.789 139.39 109.526 139.43C107.768 139.713 106.136 137.63 103.992 136.57C102.383 135.776 100.511 135.794 98.8217 136.198C95.7788 136.926 90.9954 141.397 88.4155 141.391C88.3756 141.348 88.2744 141.417 88.2381 141.369C87.6264 142.493 85.3261 141.692 83.5241 139.407C81.342 136.643 70.8769 123.389 70.8769 123.389C70.7721 123.257 70.326 122.634 70.2516 122.489C69.5661 121.136 69.5985 119.502 70.6341 118.337C70.6341 118.337 80.7192 106.987 81.8327 105.735C82.084 105.452 82.2819 105.265 82.3887 105.176C83.989 103.863 85.6138 104.147 87.0491 105.257C87.2302 105.397 87.9177 106.097 88.1008 106.263C89.7844 107.791 91.6743 109.114 93.626 108.961C95.5778 108.809 97.1781 107.373 98.6935 105.991C100.337 104.495 106.068 96.853 108.048 95.9367C108.257 95.8396 108.92 94.8806 109.117 94.6989C111.041 92.9298 113.538 92.1339 115.404 94.1865L115.406 94.1897Z" stroke="#404040" stroke-miterlimit="10"/>
<path d="M110.972 98.7612C111.281 99.016 112.718 103.16 112.824 103.53C112.913 103.84 114.022 106.988 114.09 107.304C114.221 107.904 114.427 108.48 114.553 109.079C115.31 112.701 114.967 116.504 113.549 119.967C112.345 122.905 109.851 132.085 107.846 134.66C107.609 134.962 107.315 135.142 107.096 135.209C105.461 135.703 104.195 134.161 102.378 133.261C101.054 132.607 99.4877 132.704 98.1168 133.15C95.8399 133.89 91.7094 138.197 89.4854 137.217C89.4431 137.171 89.3701 137.181 89.3286 137.13C89.0214 137.691 87.4551 136.76 85.9789 134.894C83.6505 131.946 76.4636 122.843 76.4636 122.843C76.3515 122.701 76.0828 122.306 76.01 122.15C75.5251 121.126 75.6016 119.896 76.3795 119.019C76.3795 119.019 84.6646 109.695 85.2216 109.068C85.3982 108.869 85.5557 108.725 85.6681 108.637C86.8863 107.684 88.2425 107.941 89.3585 108.855C89.4458 108.928 90.0654 109.601 90.1568 109.685C91.4742 110.923 93.0035 111.831 94.5672 111.668C96.1181 111.514 97.5296 110.55 98.469 109.191C99.3842 108.562 104.187 100.493 105.175 100.038C105.279 99.9891 105.837 99.0096 105.947 98.9333C107.158 97.108 109.873 96.7808 110.966 98.766L110.972 98.7612Z" stroke="#404040" stroke-miterlimit="10"/>
<path d="M109 120.383C107.721 123.505 107.463 127.769 105.225 130.417C103.483 132.477 102.433 130.782 100.753 129.944C99.7168 129.427 98.4451 129.591 97.4018 130.091C95.8395 130.842 92.2416 135.191 90.4151 132.878L82.0518 122.285C81.4455 121.516 81.4772 120.423 82.126 119.691L88.6116 112.392C89.4331 111.469 90.882 111.493 91.6723 112.442L92.2144 113.096C93.8934 115.112 97.0884 114.731 98.2464 112.377L102.783 103.154C103.573 101.548 105.898 101.659 106.533 103.331L109.133 110.198C110.377 113.485 110.329 117.125 108.995 120.379L109 120.383Z" stroke="#404040" stroke-miterlimit="10"/>
</g>
</svg>
