<svg width="168" height="100" viewBox="0 0 168 100" fill="none" xmlns="http://www.w3.org/2000/svg">
<mask id="mask0_428_1407" style="mask-type:alpha" maskUnits="userSpaceOnUse" x="0" y="0" width="168" height="100">
<rect width="168" height="100" rx="8" fill="#333435"/>
</mask>
<g mask="url(#mask0_428_1407)">
<path d="M271.912 100.953L179.386 281.792L4.85714 277.376L97.3879 96.5393L271.912 100.953Z" stroke="#404040" stroke-miterlimit="10"/>
<path d="M6.8897 265.375L95.2838 92.6158L262.017 96.8309L173.623 269.59L6.8897 265.375Z" stroke="#404040" stroke-miterlimit="10"/>
<path d="M8.92227 253.374L93.1825 88.6873L252.117 92.7058L167.856 257.392L8.92227 253.374Z" stroke="#404040" stroke-miterlimit="10"/>
<path d="M10.9512 241.369L91.0794 84.7626L242.222 88.5828L162.094 245.189L10.9512 241.369Z" stroke="#404040" stroke-miterlimit="10"/>
<path d="M12.9838 229.368L88.9782 80.8345L232.327 84.461L156.328 232.992L12.9838 229.368Z" stroke="#404040" stroke-miterlimit="10"/>
<path d="M15.0127 217.363L86.8751 76.9098L222.428 80.3352L150.565 220.789L15.0127 217.363Z" stroke="#404040" stroke-miterlimit="10"/>
<path d="M17.0453 205.363L84.7738 72.9819L212.532 76.2136L144.799 208.591L17.0453 205.363Z" stroke="#404040" stroke-miterlimit="10"/>
<path d="M19.0742 193.357L82.6708 69.057L202.637 72.0903L139.036 196.388L19.0742 193.357Z" stroke="#404040" stroke-miterlimit="10"/>
<path d="M21.107 181.356L80.5744 65.1316L192.738 67.9656L133.275 184.193L21.107 181.356Z" stroke="#404040" stroke-miterlimit="10"/>
<path d="M23.135 169.352L78.4703 61.2076L182.842 63.8433L127.511 171.991L23.135 169.352Z" stroke="#404040" stroke-miterlimit="10"/>
<path d="M25.1685 157.351L76.37 57.2788L172.948 59.7208L121.746 159.793L25.1685 157.351Z" stroke="#404040" stroke-miterlimit="10"/>
<path d="M27.1975 145.346L74.2669 53.3541L163.053 55.5977L115.984 147.589L27.1975 145.346Z" stroke="#404040" stroke-miterlimit="10"/>
<path d="M29.23 133.345L72.1657 49.4262L153.153 51.4734L110.217 135.392L29.23 133.345Z" stroke="#404040" stroke-miterlimit="10"/>
<path d="M31.259 121.34L70.0626 45.5015L143.258 47.3503L104.455 123.189L31.259 121.34Z" stroke="#404040" stroke-miterlimit="10"/>
<path d="M33.2915 109.339L67.9613 41.5734L133.363 43.2285L98.6885 110.992L33.2915 109.339Z" stroke="#404040" stroke-miterlimit="10"/>
<path d="M35.3227 97.3302L65.8623 37.6519L123.463 39.103L92.9254 98.7888L35.3227 97.3302Z" stroke="#404040" stroke-miterlimit="10"/>
<path d="M37.3553 85.3296L63.761 33.724L113.568 34.9815L87.1591 86.5917L37.3553 85.3296Z" stroke="#404040" stroke-miterlimit="10"/>
<path d="M103.673 30.8582L81.3966 74.3882L39.3888 73.3273L61.6579 29.7991L103.673 30.8582Z" stroke="#404040" stroke-miterlimit="10"/>
</g>
</svg>
