<svg width="168" height="100" viewBox="0 0 168 100" fill="none" xmlns="http://www.w3.org/2000/svg">
<mask id="mask0_412_4410" style="mask-type:alpha" maskUnits="userSpaceOnUse" x="0" y="0" width="168" height="100">
<rect width="168" height="100" rx="8" fill="#333435"/>
</mask>
<g mask="url(#mask0_412_4410)">
<path d="M139.167 17.3672V-7.01343" stroke="#4B66EF" stroke-miterlimit="10"/>
<path d="M131.692 17.9555L127.878 -6.12329" stroke="#4B66EF" stroke-miterlimit="10"/>
<path d="M124.395 19.7064L116.861 -3.48218" stroke="#4B66EF" stroke-miterlimit="10"/>
<path d="M117.465 22.5772L106.397 0.852295" stroke="#4B66EF" stroke-miterlimit="10"/>
<path d="M111.071 26.4961L96.7402 6.77051" stroke="#4B66EF" stroke-miterlimit="10"/>
<path d="M105.368 31.3665L88.1279 14.127" stroke="#4B66EF" stroke-miterlimit="10"/>
<path d="M100.497 37.0701L80.7715 22.739" stroke="#4B66EF" stroke-miterlimit="10"/>
<path d="M96.5774 43.464L74.8525 32.396" stroke="#4B66EF" stroke-miterlimit="10"/>
<path d="M93.7061 50.3942L70.5176 42.8608" stroke="#4B66EF" stroke-miterlimit="10"/>
<path d="M91.9558 57.6898L67.877 53.876" stroke="#4B66EF" stroke-miterlimit="10"/>
<path d="M91.3679 65.1665H66.9873" stroke="#4B66EF" stroke-miterlimit="10"/>
<path d="M91.9558 72.6433L67.877 76.4571" stroke="#4B66EF" stroke-miterlimit="10"/>
<path d="M93.7061 79.9351L70.5176 87.4684" stroke="#4B66EF" stroke-miterlimit="10"/>
<path d="M96.5774 86.865L74.8525 97.933" stroke="#4B66EF" stroke-miterlimit="10"/>
<path d="M100.497 93.2593L80.7715 107.59" stroke="#4B66EF" stroke-miterlimit="10"/>
<path d="M105.368 98.9626L88.1279 116.202" stroke="#4B66EF" stroke-miterlimit="10"/>
<path d="M167.259 26.4961L181.59 6.77051" stroke="#4B66EF" stroke-miterlimit="10"/>
<path d="M160.865 22.5772L171.933 0.852295" stroke="#4B66EF" stroke-miterlimit="10"/>
<path d="M153.937 19.7064L161.47 -3.48218" stroke="#4B66EF" stroke-miterlimit="10"/>
<path d="M146.645 17.9555L150.458 -6.12329" stroke="#4B66EF" stroke-miterlimit="10"/>
<path d="M150.342 18.6181L156.042 -5.12451" stroke="#4B66EF" stroke-miterlimit="10"/>
<path d="M142.922 17.4437L144.838 -6.89673" stroke="#4B66EF" stroke-miterlimit="10"/>
<path d="M135.409 17.4427L133.494 -6.90039" stroke="#4B66EF" stroke-miterlimit="10"/>
<path d="M127.989 18.6176L122.29 -5.12646" stroke="#4B66EF" stroke-miterlimit="10"/>
<path d="M120.845 20.9398L111.501 -1.62012" stroke="#4B66EF" stroke-miterlimit="10"/>
<path d="M114.152 24.3493L101.395 3.53027" stroke="#4B66EF" stroke-miterlimit="10"/>
<path d="M108.077 28.7651L92.2178 10.1973" stroke="#4B66EF" stroke-miterlimit="10"/>
<path d="M102.765 34.0752L84.1963 18.2175" stroke="#4B66EF" stroke-miterlimit="10"/>
<path d="M98.3488 40.1522L77.5283 27.3945" stroke="#4B66EF" stroke-miterlimit="10"/>
<path d="M94.938 46.8482L72.3809 37.5046" stroke="#4B66EF" stroke-miterlimit="10"/>
<path d="M92.6167 53.9919L68.874 48.2917" stroke="#4B66EF" stroke-miterlimit="10"/>
<path d="M91.4429 61.4103L67.1025 59.4948" stroke="#4B66EF" stroke-miterlimit="10"/>
<path d="M91.4431 68.9207L67.1001 70.8355" stroke="#4B66EF" stroke-miterlimit="10"/>
<path d="M92.6183 76.3404L68.8742 82.0397" stroke="#4B66EF" stroke-miterlimit="10"/>
<path d="M94.9399 83.4836L72.3799 92.8279" stroke="#4B66EF" stroke-miterlimit="10"/>
<path d="M98.349 90.1763L77.53 102.934" stroke="#4B66EF" stroke-miterlimit="10"/>
<path d="M102.764 96.2563L84.1967 112.111" stroke="#4B66EF" stroke-miterlimit="10"/>
<path d="M108.074 101.568L92.2176 120.133" stroke="#4B66EF" stroke-miterlimit="10"/>
<path d="M164.177 24.3489L176.935 3.52836" stroke="#4B66EF" stroke-miterlimit="10"/>
<path d="M157.485 20.9397L166.828 -1.61737" stroke="#4B66EF" stroke-miterlimit="10"/>
<path d="M139.165 46.4301V36.874" stroke="#4B66EF" stroke-miterlimit="10"/>
<path d="M136.235 46.6607L134.74 37.2229" stroke="#4B66EF" stroke-miterlimit="10"/>
<path d="M133.376 47.3469L130.423 38.2581" stroke="#4B66EF" stroke-miterlimit="10"/>
<path d="M130.659 48.4722L126.321 39.957" stroke="#4B66EF" stroke-miterlimit="10"/>
<path d="M128.153 50.0084L122.536 42.2769" stroke="#4B66EF" stroke-miterlimit="10"/>
<path d="M125.917 51.9173L119.16 45.1602" stroke="#4B66EF" stroke-miterlimit="10"/>
<path d="M124.009 54.1528L116.277 48.5356" stroke="#4B66EF" stroke-miterlimit="10"/>
<path d="M122.472 56.659L113.957 52.3208" stroke="#4B66EF" stroke-miterlimit="10"/>
<path d="M121.347 59.3753L112.258 56.4226" stroke="#4B66EF" stroke-miterlimit="10"/>
<path d="M120.66 62.2348L111.223 60.74" stroke="#4B66EF" stroke-miterlimit="10"/>
<path d="M120.43 65.1653H110.874" stroke="#4B66EF" stroke-miterlimit="10"/>
<path d="M120.66 68.0959L111.223 69.5908" stroke="#4B66EF" stroke-miterlimit="10"/>
<path d="M121.347 70.9539L112.258 73.9066" stroke="#4B66EF" stroke-miterlimit="10"/>
<path d="M122.472 73.6702L113.957 78.0083" stroke="#4B66EF" stroke-miterlimit="10"/>
<path d="M124.009 76.1765L116.277 81.7937" stroke="#4B66EF" stroke-miterlimit="10"/>
<path d="M125.917 78.4119L119.16 85.169" stroke="#4B66EF" stroke-miterlimit="10"/>
<path d="M128.153 80.3223L122.536 88.0523" stroke="#4B66EF" stroke-miterlimit="10"/>
<path d="M130.659 81.8586L126.321 90.3723" stroke="#4B66EF" stroke-miterlimit="10"/>
<path d="M133.376 82.9822L130.423 92.071" stroke="#4B66EF" stroke-miterlimit="10"/>
<path d="M136.235 83.6697L134.74 93.1075" stroke="#4B66EF" stroke-miterlimit="10"/>
<path d="M139.165 83.9004V93.455" stroke="#4B66EF" stroke-miterlimit="10"/>
<path d="M142.096 83.6697L143.591 93.1075" stroke="#4B66EF" stroke-miterlimit="10"/>
<path d="M144.954 82.9822L147.907 92.071" stroke="#4B66EF" stroke-miterlimit="10"/>
<path d="M147.67 81.8586L152.008 90.3723" stroke="#4B66EF" stroke-miterlimit="10"/>
<path d="M150.176 80.3223L155.793 88.0523" stroke="#4B66EF" stroke-miterlimit="10"/>
<path d="M152.412 78.4119L159.169 85.169" stroke="#4B66EF" stroke-miterlimit="10"/>
<path d="M154.322 76.1765L162.052 81.7937" stroke="#4B66EF" stroke-miterlimit="10"/>
<path d="M155.859 73.6702L164.373 78.0083" stroke="#4B66EF" stroke-miterlimit="10"/>
<path d="M156.982 70.9539L166.071 73.9066" stroke="#4B66EF" stroke-miterlimit="10"/>
<path d="M157.67 68.0959L167.108 69.5908" stroke="#4B66EF" stroke-miterlimit="10"/>
<path d="M157.9 65.1653H167.455" stroke="#4B66EF" stroke-miterlimit="10"/>
<path d="M157.67 62.2348L167.108 60.74" stroke="#4B66EF" stroke-miterlimit="10"/>
<path d="M156.982 59.3753L166.071 56.4226" stroke="#4B66EF" stroke-miterlimit="10"/>
<path d="M155.859 56.659L164.373 52.3208" stroke="#4B66EF" stroke-miterlimit="10"/>
<path d="M154.322 54.1528L162.052 48.5356" stroke="#4B66EF" stroke-miterlimit="10"/>
<path d="M152.412 51.9173L159.169 45.1602" stroke="#4B66EF" stroke-miterlimit="10"/>
<path d="M150.176 50.0084L155.793 42.2769" stroke="#4B66EF" stroke-miterlimit="10"/>
<path d="M147.67 48.4722L152.008 39.957" stroke="#4B66EF" stroke-miterlimit="10"/>
<path d="M144.954 47.3469L147.907 38.2581" stroke="#4B66EF" stroke-miterlimit="10"/>
<path d="M142.096 46.6607L143.591 37.2229" stroke="#4B66EF" stroke-miterlimit="10"/>
</g>
</svg>
